<svg width="1000" height="1000" viewBox="0 0 1000 1000" fill="none" xmlns="http://www.w3.org/2000/svg">
<g clip-path="url(#clip0_4_11)">
<rect width="1000" height="1000" fill="white"/>
<rect width="1000" height="1000" fill="black"/>
<mask id="mask0_4_11" style="mask-type:luminance" maskUnits="userSpaceOnUse" x="180" y="174" width="638" height="579">
<path d="M817.033 174.945H180.484V752.516H817.033V174.945Z" fill="white"/>
</mask>
<g mask="url(#mask0_4_11)">
<path fill-rule="evenodd" clip-rule="evenodd" d="M343.798 678.156C402.106 725.523 469.464 752.518 541.301 752.518C648.128 752.518 745.104 692.644 817.069 595.124C786.683 553.96 751.853 519.481 713.664 493.414L652.349 524.023C665.527 544.525 673.203 568.929 673.203 595.124C673.203 667.888 614.16 726.867 541.301 726.867C484.689 726.867 436.424 691.237 417.714 641.213L343.798 678.123V678.156ZM495.915 602.192C497.386 611.755 501.864 620.648 508.805 627.588C517.409 636.192 529.114 641.022 541.301 640.989C566.664 640.989 587.23 620.455 587.23 595.124C587.23 582.682 582.273 571.392 574.212 563.108L495.946 602.192H495.915Z" fill="#2BAD72"/>
<path d="M360.496 594.097L807.412 379.258L709.188 174.943L658.461 355.494L597.499 228.645L546.74 409.195L485.778 282.346L435.019 462.897L374.058 336.047L323.299 516.598L262.337 389.749L180.489 680.646L292.21 626.944L360.496 594.128V594.097Z" fill="#2BAD72"/>
</g>
</g>
<defs>
<clipPath id="clip0_4_11">
<rect width="1000" height="1000" fill="white"/>
</clipPath>
</defs>
</svg>
