<svg width="428" height="428" viewBox="0 0 428 428" fill="none" xmlns="http://www.w3.org/2000/svg">
<g clip-path="url(#clip0_25_2)">
<path d="M5.74999 364.49C15.78 396.33 44.2 419.97 77.09 425.52C86.06 427.04 96.31 427.93 106 427.94C177.187 427.993 248.37 428.007 319.55 427.98C329.7 427.98 338.74 427.37 347.99 425.98C377.74 421.52 402.62 404.54 416.52 378.08C425.09 361.74 427.95 342.22 427.98 324.5C428.04 290.887 428.04 219.683 427.98 110.89C427.97 97.03 427.44 85.79 424.99 73.76C418.7 42.86 396.35 16.82 366.27 6.40999C352.58 1.66999 336.58 -1.10632e-05 321.75 -1.10632e-05C248.437 -0.0266777 175.123 -0.016679 101.81 0.0299877C59.03 0.0499877 22.46 19.49 6.79 60.75C1.95 73.5 0.0599808 89.18 0.0199808 102.75C-0.0533525 128.55 -0.0500094 200.447 0.0299906 318.44C0.0399906 335.26 1.12999 349.84 5.74999 364.49Z" stroke="#7C7C7C" stroke-width="2"/>
<path d="M286.53 199.56C284.89 166.19 268.62 136.42 233.27 129.7C204.15 124.17 175.23 132.79 158.05 157.41C157.974 157.518 157.92 157.64 157.891 157.769C157.862 157.898 157.859 158.032 157.883 158.162C157.906 158.292 157.955 158.417 158.026 158.528C158.098 158.639 158.191 158.735 158.3 158.81L179.76 173.5C179.975 173.649 180.24 173.707 180.499 173.66C180.757 173.613 180.988 173.466 181.14 173.25C192.66 157.04 213.13 153.47 231.56 158.49C240.08 160.81 246.337 165.203 250.33 171.67C253.957 177.55 256.317 183.823 257.41 190.49C257.435 190.645 257.424 190.803 257.376 190.953C257.328 191.102 257.245 191.239 257.134 191.35C257.023 191.462 256.887 191.547 256.737 191.597C256.587 191.648 256.427 191.662 256.27 191.64C241.143 189.32 225.997 189.01 210.83 190.71C184.71 193.64 158.11 209.06 154.48 237.24C149.13 278.72 186.17 300.85 222.8 297.81C247.67 295.75 267.19 282.81 277.51 259.52C281.323 250.933 283.81 242 284.97 232.72C284.99 232.556 285.051 232.399 285.148 232.264C285.245 232.13 285.374 232.022 285.525 231.95C285.675 231.879 285.841 231.846 286.008 231.854C286.175 231.863 286.337 231.913 286.48 232C298.173 239.14 305.69 248.94 309.03 261.4C320.26 303.26 282.15 336.64 245.15 343.34C223.11 347.32 199.57 346.77 178.09 340.91C136.1 329.45 113.63 294.67 106.52 253.74C95.42 189.89 106.7 101.87 184.19 85.2C234.89 74.29 290.51 87.13 315.57 136.87C319.43 144.53 322.517 152.543 324.83 160.91C324.9 161.164 325.068 161.38 325.296 161.511C325.525 161.642 325.795 161.677 326.05 161.61L351.14 154.98C351.268 154.946 351.387 154.888 351.492 154.808C351.597 154.727 351.685 154.627 351.751 154.513C351.817 154.399 351.86 154.272 351.877 154.141C351.894 154.01 351.885 153.877 351.85 153.75C346.423 133.197 337.13 114.907 323.97 98.88C289.21 56.54 228.92 46.3 177.99 57.46C85.5 77.74 65.36 177.77 78.71 256.77C88.97 317.44 125.1 362.11 188.01 371.96C208.403 375.153 228.747 374.92 249.04 371.26C300.62 361.97 345.95 319.16 337.73 263.06C333.42 233.61 314.1 211.92 287.14 200.43C286.969 200.358 286.821 200.238 286.713 200.084C286.605 199.93 286.542 199.749 286.53 199.56Z" stroke="#7C7C7C" stroke-width="2"/>
<path d="M181.78 244.73C181.85 257.8 192.17 265.9 204.01 268.49C222.45 272.54 242.92 268 251.47 249.48C255.437 240.907 257.667 231.643 258.16 221.69C258.171 221.451 258.096 221.216 257.947 221.027C257.799 220.838 257.587 220.708 257.35 220.66C242.877 217.867 228.073 217.28 212.94 218.9C199.17 220.38 181.69 228.47 181.78 244.73Z" stroke="#7C7C7C" stroke-width="2"/>
<path d="M77.09 425.52C44.2 419.97 15.78 396.33 5.74999 364.49C1.12999 349.84 0.0399906 335.26 0.0299906 318.44C-0.0500094 200.447 -0.0533525 128.55 0.0199808 102.75C0.0599808 89.18 1.95 73.5 6.79 60.75C22.46 19.49 59.03 0.0499877 101.81 0.0299877C175.123 -0.016679 248.437 -0.0266777 321.75 -1.10632e-05C336.58 -1.10632e-05 352.58 1.66999 366.27 6.40999C396.35 16.82 418.7 42.86 424.99 73.76C427.44 85.79 427.97 97.03 427.98 110.89C428.04 219.683 428.04 290.887 427.98 324.5C427.95 342.22 425.09 361.74 416.52 378.08C402.62 404.54 377.74 421.52 347.99 425.98C338.74 427.37 329.7 427.98 319.55 427.98C248.37 428.007 177.187 427.993 106 427.94C96.31 427.93 86.06 427.04 77.09 425.52ZM286.53 199.56C284.89 166.19 268.62 136.42 233.27 129.7C204.15 124.17 175.23 132.79 158.05 157.41C157.974 157.518 157.92 157.64 157.891 157.769C157.862 157.898 157.859 158.032 157.883 158.162C157.906 158.292 157.955 158.417 158.026 158.528C158.098 158.639 158.191 158.735 158.3 158.81L179.76 173.5C179.975 173.649 180.24 173.707 180.499 173.66C180.757 173.613 180.988 173.466 181.14 173.25C192.66 157.04 213.13 153.47 231.56 158.49C240.08 160.81 246.337 165.203 250.33 171.67C253.957 177.55 256.317 183.823 257.41 190.49C257.435 190.645 257.424 190.803 257.376 190.953C257.328 191.102 257.245 191.239 257.134 191.35C257.023 191.462 256.887 191.547 256.737 191.597C256.587 191.648 256.427 191.662 256.27 191.64C241.143 189.32 225.997 189.01 210.83 190.71C184.71 193.64 158.11 209.06 154.48 237.24C149.13 278.72 186.17 300.85 222.8 297.81C247.67 295.75 267.19 282.81 277.51 259.52C281.323 250.933 283.81 242 284.97 232.72C284.99 232.555 285.051 232.399 285.148 232.264C285.245 232.13 285.374 232.022 285.525 231.95C285.675 231.879 285.841 231.846 286.008 231.854C286.175 231.863 286.337 231.913 286.48 232C298.173 239.14 305.69 248.94 309.03 261.4C320.26 303.26 282.15 336.64 245.15 343.34C223.11 347.32 199.57 346.77 178.09 340.91C136.1 329.45 113.63 294.67 106.52 253.74C95.42 189.89 106.7 101.87 184.19 85.2C234.89 74.29 290.51 87.13 315.57 136.87C319.43 144.53 322.517 152.543 324.83 160.91C324.9 161.164 325.068 161.38 325.296 161.511C325.525 161.642 325.795 161.677 326.05 161.61L351.14 154.98C351.268 154.946 351.387 154.888 351.492 154.808C351.597 154.727 351.685 154.627 351.751 154.513C351.817 154.399 351.86 154.272 351.877 154.141C351.894 154.01 351.885 153.877 351.85 153.75C346.423 133.197 337.13 114.907 323.97 98.88C289.21 56.54 228.92 46.3 177.99 57.46C85.5 77.74 65.36 177.77 78.71 256.77C88.97 317.44 125.1 362.11 188.01 371.96C208.403 375.153 228.747 374.92 249.04 371.26C300.62 361.97 345.95 319.16 337.73 263.06C333.42 233.61 314.1 211.92 287.14 200.43C286.969 200.358 286.821 200.238 286.713 200.084C286.605 199.93 286.542 199.749 286.53 199.56Z" fill="black"/>
<path d="M287.14 200.43C314.1 211.92 333.42 233.61 337.73 263.06C345.95 319.16 300.62 361.97 249.04 371.26C228.747 374.92 208.403 375.153 188.01 371.96C125.1 362.11 88.97 317.44 78.71 256.77C65.36 177.77 85.5 77.74 177.99 57.46C228.92 46.3 289.21 56.54 323.97 98.88C337.13 114.907 346.423 133.197 351.85 153.75C351.885 153.877 351.894 154.01 351.877 154.141C351.86 154.272 351.817 154.399 351.751 154.513C351.685 154.627 351.597 154.727 351.492 154.808C351.387 154.888 351.268 154.946 351.14 154.98L326.05 161.61C325.795 161.677 325.525 161.642 325.296 161.511C325.068 161.38 324.9 161.164 324.83 160.91C322.517 152.543 319.43 144.53 315.57 136.87C290.51 87.13 234.89 74.29 184.19 85.2C106.7 101.87 95.42 189.89 106.52 253.74C113.63 294.67 136.1 329.45 178.09 340.91C199.57 346.77 223.11 347.32 245.15 343.34C282.15 336.64 320.26 303.26 309.03 261.4C305.69 248.94 298.173 239.14 286.48 232C286.337 231.913 286.175 231.863 286.008 231.854C285.841 231.846 285.675 231.879 285.525 231.95C285.374 232.022 285.245 232.13 285.148 232.264C285.051 232.399 284.99 232.556 284.97 232.72C283.81 242 281.323 250.933 277.51 259.52C267.19 282.81 247.67 295.75 222.8 297.81C186.17 300.85 149.13 278.72 154.48 237.24C158.11 209.06 184.71 193.64 210.83 190.71C225.997 189.01 241.143 189.32 256.27 191.64C256.427 191.662 256.587 191.648 256.737 191.597C256.887 191.547 257.023 191.462 257.134 191.35C257.245 191.239 257.328 191.102 257.376 190.953C257.424 190.803 257.435 190.645 257.41 190.49C256.317 183.823 253.957 177.55 250.33 171.67C246.337 165.203 240.08 160.81 231.56 158.49C213.13 153.47 192.66 157.04 181.14 173.25C180.988 173.466 180.757 173.613 180.499 173.66C180.24 173.707 179.975 173.649 179.76 173.5L158.3 158.81C158.191 158.735 158.098 158.639 158.026 158.528C157.955 158.417 157.906 158.292 157.883 158.162C157.859 158.032 157.862 157.898 157.891 157.769C157.92 157.64 157.974 157.518 158.05 157.41C175.23 132.79 204.15 124.17 233.27 129.7C268.62 136.42 284.89 166.19 286.53 199.56C286.542 199.749 286.605 199.93 286.713 200.084C286.821 200.238 286.969 200.358 287.14 200.43ZM181.78 244.73C181.85 257.8 192.17 265.9 204.01 268.49C222.45 272.54 242.92 268 251.47 249.48C255.437 240.907 257.667 231.643 258.16 221.69C258.171 221.451 258.096 221.216 257.947 221.027C257.799 220.838 257.587 220.708 257.35 220.66C242.877 217.867 228.073 217.28 212.94 218.9C199.17 220.38 181.69 228.47 181.78 244.73Z" fill="#F8F8F8"/>
<path d="M204.01 268.49C192.17 265.9 181.85 257.8 181.78 244.73C181.69 228.47 199.17 220.38 212.94 218.9C228.073 217.28 242.877 217.867 257.35 220.66C257.587 220.708 257.799 220.838 257.947 221.027C258.096 221.216 258.171 221.451 258.16 221.69C257.667 231.643 255.437 240.907 251.47 249.48C242.92 268 222.45 272.54 204.01 268.49Z" fill="black"/>
</g>
<defs>
<clipPath id="clip0_25_2">
<rect width="428" height="428" fill="white"/>
</clipPath>
</defs>
</svg>
